#!OML:ASF F:\VICON\USERDATA\INSTALL\rory3\rory3.ASF
:FULLY-SPECIFIED
:DEGREES
26
root 0.9510441923801123 18.007616070767714 -2.9708324536937507 -0.6326940213613954 1.3110154728527958 2.697164610818677
lfemur 7.678388708063446 -0.5250744265530489 -27.963701060880645
ltibia 11.49116936645028
lfoot -1.253226006587087 -6.545190032237887
ltoes -4.764615380985325
rfemur -22.432505156276044 8.883677152683557 15.36756352199863
rtibia 33.47602976281181
rfoot -7.051957907679766 -15.621835740599169
rtoes -1.9017191637288682
lowerback 9.163169139439006 -0.3665919655184925 -4.056341591990456
upperback 0.5004871476589388 -1.0671774691656215 1.0143769894222818
thorax -4.431403839257487 -0.4820011400783738 3.3055452238283056
lowerneck -17.14343575648431 -2.801241281403632 -2.4920404079894785
upperneck 20.520538573013596 -3.4606445738706797 0.585645723737694
head 9.378577898275442 -1.6947870521171653 0.024632595371188643
lclavicle -2.7975426876096962e-15 -4.162559064270348e-16
lhumerus -21.05878796729739 -5.050604004295419 82.52443414806113
lradius 30.306537646952457
lwrist 7.394180193741791
lhand -28.707103511105156 23.742947008625674
lfingers 7.1250199999999975
lthumb -2.248214059620135 53.678828529926875
rclavicle -2.796190277351857e-15 -4.1533557655143057e-16
rhumerus -34.26850166142374 -26.653719183700815 -76.0251176243292
rradius 23.946139624847717
rwrist 5.744603231810582
rhand -17.404676685841924 22.32383830496217
rfingers 7.1250199999999975
rthumb 8.880855734992886 -7.696832135397423
27
root 0.8578653255626632 17.96932584847393 -1.826793675061964 -0.4952363067578389 2.3227150721547796 2.799960179237529
lfemur 10.028078146099816 -1.2387911223581487 -27.165043461639502
ltibia 11.886226942030376
lfoot 0.47291502359818516 -9.721595402693552
ltoes -4.599828269459821
rfemur -22.762780612965038 8.042722324530525 15.615692322605767
rtibia 23.414520466725524
rfoot -9.463008612060506 -19.840820332700382
rtoes -4.479824535452099
lowerback 9.143918468552183 -0.6205297279057495 -4.4056553931667874
upperback 0.46276200322065547 -1.429671268943586 1.1762066886488385
thorax -4.454222656707124 -0.6916303072986071 3.585213494333931
lowerneck -17.305987852887828 -2.775861468796677 -2.4771887748577273
upperneck 20.676984386782387 -3.4106380013398585 0.5158572011649276
head 9.498417591162696 -1.6700550840847392 -0.011595964277215487
lclavicle -2.7980318157653646e-15 -4.1658236844918616e-16
lhumerus -19.933598804756382 -5.459145920694187 82.45093602756577
lradius 30.880780789859646
lwrist 7.313449163457429
lhand -28.8952570938327 23.941919499463335
lfingers 7.1250199999999975
lthumb -2.3243134791814737 53.849062289927815
rclavicle -2.7974702914088583e-15 -4.16189206252924e-16
rhumerus -34.47909476455592 -27.71555028758595 -75.49185690721228
rradius 23.565243785874387
rwrist 6.177962881089947
rhand -17.60042030499751 22.365807262809206
rfingers 7.1250199999999975
rthumb 8.79786297703202 -7.368359901277363
28
root 0.7529490417212905 17.92208795381729 -0.8009012512670477 -0.6158320984225192 2.701699413406663 2.532459746151741
lfemur 11.393094061855827 -2.2893776623336755 -26.182257985270624
ltibia 15.335354424046173
lfoot 2.376170494129302 -12.599719282114767
ltoes -4.613380200683866
rfemur -22.699863178554594 6.917445107921087 16.92282580556634
rtibia 19.60540939864778
rfoot -9.82935533956008 -15.437486455642981
rtoes -4.540288513103912
lowerback 9.246396922963903 -0.6817097826981283 -4.3934508572676725
upperback 0.5635191716305794 -1.5630573831885823 1.4425678319693154
thorax -4.451733992349654 -0.7375126356525862 3.8160776090625426
lowerneck -17.33682429478135 -2.721766121882639 -2.5314696077360206
upperneck 20.736094179961547 -3.332458696489172 0.33650244906807203
head 9.502190468529518 -1.640908368622539 -0.05318278171907115
lclavicle -2.798084466755829e-15 -4.166173590110459e-16
lhumerus -19.738410016914724 -5.079857563694782 82.57639877932162
lradius 30.92211111850878
lwrist 7.2218530561058465
lhand -29.190715709732256 23.500219484899084
lfingers 7.1250199999999975
lthumb -2.5851972991570054 53.41530836713501
rclavicle -2.7958853321641218e-15 -4.151319886173003e-16
rhumerus -34.47964337210592 -28.68252843826572 -74.88465830863119
rradius 22.977352095501363
rwrist 7.226898002065383
rhand -17.53008637611058 22.64089749134542
rfingers 7.1250199999999975
rthumb 8.732598499511846 -7.39245587778581
29
root 0.6432829239673089 17.946399926487825 0.08206453335187547 -1.0477332529656884 3.135185348741273 1.8740240877616556
lfemur 11.264391200275433 -3.547062352951963 -24.849675197854154
ltibia 21.847211674080995
lfoot 5.76052945627116 -14.518930962352742
ltoes -1.0430558833886474
rfemur -21.624516206490966 6.750743715116613 18.25167159082045
rtibia 19.25061457195302
rfoot -7.596521910605353 -10.909625956756184
rtoes -1.450149458631366
lowerback 9.427382455533849 -0.8042902140566813 -3.7738992350263043
upperback 0.634720682360118 -1.6440503922454428 1.8041531487199494
thorax -4.507442902843456 -0.7860594992738078 3.8183070222581867
lowerneck -17.23692793223163 -2.639943847801017 -2.557754849147428
upperneck 20.816270673074843 -3.190407698436399 0.03632037333357829
head 9.446545847626767 -1.5956408438701537 -0.10141756726673254
lclavicle -2.7976839068027044e-15 -4.1635012706572253e-16
lhumerus -20.542530874647852 -4.149913343852034 82.86802217342343
lradius 30.693710808061443
lwrist 7.023130637197336
lhand -29.383272748565513 23.55637747840468
lfingers 7.1250199999999975
lthumb -2.8327346613595505 53.39469185051202
rclavicle -2.7959182471275514e-15 -4.1515392059643913e-16
rhumerus -34.28028858674777 -29.211211602031582 -74.41966234739505
rradius 22.333494263705102
rwrist 8.344436278980819
rhand -17.48295478179781 22.61444270737475
rfingers 7.1250199999999975
rthumb 8.6582960153435 -7.498752187625328
